<?xml version="1.0" encoding="UTF-8"?>
<svg width="32px" height="32px" viewBox="0 0 32 32" version="1.1" xmlns="http://www.w3.org/2000/svg">
    <title>Recap App Icon</title>
    <g stroke="none" stroke-width="1" fill="none" fill-rule="evenodd">
        <rect fill="#8B5CF6" x="0" y="0" width="32" height="32" rx="8"></rect>
        <path d="M9.6,22.4 C8.716,22.4 8,21.684 8,20.8 L8,11.2 C8,10.316 8.716,9.6 9.6,9.6 L22.4,9.6 C23.284,9.6 24,10.316 24,11.2 L24,12.8 L19.2,12.8 C17.432,12.8 16,14.232 16,16 C16,17.768 17.432,19.2 19.2,19.2 L24,19.2 L24,20.8 C24,21.684 23.284,22.4 22.4,22.4 L9.6,22.4 Z" fill="#FFFFFF" fill-rule="nonzero"></path>
        <path d="M19.2,17.6 C18.316,17.6 17.6,16.884 17.6,16 C17.6,15.116 18.316,14.4 19.2,14.4 L25.6,14.4 L25.6,17.6 L19.2,17.6 Z" fill="#FFFFFF" fill-rule="nonzero"></path>
    </g>
</svg>
