<svg width="1024" height="1024" viewBox="0 0 1024 1024" fill="none" xmlns="http://www.w3.org/2000/svg">
<g clip-path="url(#clip0_2625_2750)">
<path d="M487.86 91.336C490.3 93.5024 492.658 95.7294 495 98.0001C495.6 98.526 496.199 99.0519 496.817 99.5938C513.428 114.702 524.004 141.398 525.184 163.429C525.251 167.384 525.258 171.338 525.241 175.294C525.242 176.821 525.243 178.348 525.246 179.876C525.25 184.047 525.243 188.218 525.232 192.389C525.224 196.896 525.227 201.404 525.228 205.912C525.229 213.713 525.223 221.514 525.212 229.315C525.196 240.594 525.19 251.873 525.188 263.152C525.183 281.454 525.17 299.755 525.151 318.056C525.133 335.83 525.119 353.604 525.11 371.378C525.11 372.474 525.109 373.57 525.109 374.7C525.106 380.2 525.103 385.7 525.101 391.2C525.08 436.8 525.045 482.4 525 528C528.607 527.244 532.212 526.476 535.817 525.707C537.325 525.391 537.325 525.391 538.863 525.069C560.016 520.534 579.465 512.78 597 500C597.641 499.545 598.282 499.09 598.942 498.621C612.222 488.299 620.514 471.428 626 456C626.28 455.227 626.56 454.453 626.848 453.656C632.004 439.102 634.713 424.385 636.959 409.161C637.074 408.402 637.19 407.643 637.308 406.86C637.523 405.435 637.729 404.009 637.924 402.581C638.58 398.237 639.854 394.825 642 391C646.454 390.639 646.454 390.639 648.567 392.036C650.695 394.953 651.043 398.128 651.614 401.613C651.892 403.177 652.17 404.741 652.448 406.304C652.589 407.122 652.73 407.941 652.875 408.784C657.894 437.764 663.819 468.353 684 491C684.665 491.759 685.331 492.519 686.016 493.301C706.468 515.23 738.646 522.728 766.793 528.641C770.936 529.532 775.066 530.455 779.176 531.484C780.499 531.813 780.499 531.813 781.849 532.148C784 533 784 533 786 536C785.813 539.063 785.813 539.063 785 542C781.618 544.255 779.202 544.727 775.227 545.516C773.841 545.797 772.455 546.078 771.069 546.359C770.343 546.504 769.618 546.649 768.87 546.799C738.859 552.831 709.352 559.687 687 582C686.316 582.673 685.631 583.346 684.926 584.039C664.406 605.567 657.431 637.166 652.078 665.391C651.805 666.813 651.805 666.813 651.526 668.264C651.183 670.05 650.848 671.838 650.522 673.627C650.287 674.825 650.287 674.825 650.047 676.047C649.851 677.089 649.851 677.089 649.652 678.151C648.869 680.372 647.757 681.466 646 683C642.347 681.75 641.22 681.329 639 678C638.57 676.145 638.221 674.271 637.922 672.391C637.734 671.255 637.546 670.119 637.352 668.949C637.154 667.728 636.955 666.508 636.75 665.25C632.022 637.697 625.475 608.868 607 587C606.504 586.348 606.008 585.696 605.496 585.023C589.416 564.792 560.284 555.57 536.278 549.758C534.639 549.355 534.639 549.355 532.967 548.944C530.312 548.291 527.657 547.644 525 547C525.013 586.007 525.053 625.015 525.127 664.022C525.136 668.637 525.145 673.251 525.153 677.866C525.155 678.784 525.156 679.703 525.158 680.649C525.185 695.485 525.194 710.321 525.196 725.158C525.199 740.403 525.221 755.648 525.261 770.893C525.284 780.285 525.294 789.678 525.284 799.07C525.278 805.528 525.292 811.985 525.319 818.443C525.334 822.158 525.342 825.873 525.327 829.588C525.218 859.79 529.712 885.519 550.957 908.078C558.814 915.422 572.912 925.931 584.063 926.016C587.167 924.388 588.655 921.593 590.438 918.688C590.832 918.057 591.226 917.426 591.632 916.776C595.096 911.093 597.837 905.303 600 899C600.319 898.094 600.637 897.188 600.965 896.254C605.186 882.23 604.589 866.177 598 853C597.606 848.819 597.55 846.691 599.875 843.125C602.738 840.262 604.367 839.814 608.313 839.688C609.072 839.65 609.831 839.613 610.614 839.574C614.067 840.19 615.561 841.493 618 844C619.123 846.538 619.983 848.804 620.75 851.438C620.958 852.093 621.165 852.749 621.379 853.424C628.552 876.493 623.736 900.956 613 922C611.366 925.019 609.696 928.015 608 931C640.456 925.756 667.314 914.681 687.25 887.188C695.321 876.353 695.321 876.353 698.938 864.031C697.493 860.9 695.653 858.033 693.813 855.125C684.256 839.545 677.721 822.074 677.938 803.625C677.942 802.889 677.947 802.153 677.951 801.395C677.963 799.596 677.981 797.798 678 796C677.392 795.925 676.783 795.851 676.157 795.773C657.472 792.971 639.638 783.714 625 772C624.445 771.556 623.889 771.113 623.316 770.656C602.117 753.577 602.117 753.577 599 742C599 737.698 599.578 735.62 602 732.063C605.513 729.648 607.602 729.135 611.805 729.398C615.931 730.529 617.66 733.614 620 737C635.469 757.491 655.969 769.686 681 775C681.062 773.928 681.124 772.855 681.188 771.75C682.366 762.484 687.231 752.309 693 745C696.428 742.501 697.644 742 702 742C706.288 742.762 708.43 744.417 711 748C712.188 751.125 712.188 751.125 712 755C710.739 757.802 709.255 760.391 707.696 763.039C697.095 781.553 696.527 802.698 702 823C705.18 833.23 710.097 842.116 716 851C721.778 850.458 726.422 848.832 731.688 846.438C732.479 846.08 733.27 845.723 734.085 845.355C763.997 831.484 786.199 805.226 797.75 774.75C805.635 752.71 809.074 727.779 802 705C801.423 705.026 800.845 705.052 800.251 705.079C786.829 705.604 775.577 704.736 763 700C761.668 699.526 760.336 699.052 759.004 698.578C750.366 695.401 739.971 691.371 734 684C732.99 680.986 732.758 678.164 733 675C735.221 670.634 735.221 670.634 738 669C742.405 667.856 746.246 668.141 750.344 670.148C751.969 671.172 753.58 672.216 755.18 673.277C768.668 681.516 786.464 686.514 802.098 683.379C815.59 679.462 823.89 671.213 830.547 659.211C836.947 646.445 841.121 631.817 842.383 617.594C843.174 614.269 844.688 612.478 847 610C850.744 608.128 855.369 608.515 859.313 609.688C861.802 611.624 862.806 613.045 864 616C863.617 641.557 853.08 670.983 835 689C830.834 693.031 827.439 695.911 822 698C822.284 698.946 822.568 699.892 822.86 700.867C825.621 710.59 826.606 719.621 826.467 729.709C826.438 731.999 826.446 734.288 826.459 736.578C826.441 750.38 824.33 763.418 819.813 776.5C819.511 777.385 819.209 778.269 818.898 779.18C812.006 798.764 801.103 816.784 787 832C786.523 832.516 786.046 833.031 785.555 833.562C768.216 852.066 743.786 869.638 718 873C717.918 873.659 717.835 874.317 717.75 874.996C716.744 879.027 714.953 882.412 713 886.063C712.597 886.816 712.194 887.57 711.779 888.346C708.092 895.084 703.934 901.095 699 907C698.18 907.984 697.361 908.967 696.516 909.981C676.056 933.734 647.112 947.962 616 951C590.803 952.715 566.233 946.431 546 931C545.058 930.29 544.116 929.58 543.145 928.848C533.122 920.981 518.131 907.517 516 894C515.34 894 514.68 894 514 894C513.741 894.71 513.482 895.421 513.215 896.152C504.219 917.239 482.697 935.081 461.965 943.879C430.041 955.95 397.236 954.648 366 941C351.387 934.341 338.592 925.068 327 914C326.101 913.196 326.101 913.196 325.184 912.375C317.941 905.653 311.73 896.63 307 888C307 887.34 307 886.68 307 886C305.72 885.979 305.72 885.979 304.414 885.957C264.064 884.418 227.592 870.231 199.61 841.016C174.619 813.896 161.478 776.53 162 740C161.117 739.724 160.234 739.448 159.325 739.164C145.694 734.391 134.368 724.76 124 715C123.324 714.399 122.647 713.799 121.95 713.18C103.368 695.976 91.3235 666.654 89.795 641.64C89.6978 638.132 89.6727 634.634 89.6878 631.125C89.6884 629.897 89.689 628.668 89.6895 627.402C89.7668 619.786 90.2909 612.899 92.4417 605.566C93.7849 599.395 90.4732 595.105 87.4378 590C79.0964 575.453 73.1154 559.5 70.0003 543C69.8252 542.083 69.65 541.166 69.4696 540.221C67.9239 531.303 67.6004 522.521 67.6253 513.5C67.6259 512.755 67.6264 512.011 67.627 511.243C67.6686 498.805 68.6406 487.033 72.0003 475C72.2093 474.239 72.4183 473.478 72.6336 472.694C80.3552 445.498 96.2789 416.315 119.188 399.063C122.348 396.375 122.348 396.375 123.188 392.481C122.654 389.568 121.88 386.827 121 384C113.876 354.233 121.393 322.719 137 297C141.939 289.356 147.761 282.605 154 276C154.698 275.238 155.395 274.476 156.114 273.691C168.743 260.37 186.515 250.401 204 245C204.159 243.742 204.317 242.484 204.481 241.188C208.497 211.017 220.244 187.55 242 166C242.709 165.294 243.418 164.587 244.149 163.859C263.004 145.996 291.084 134.891 316.848 132.668C320.065 132.313 320.065 132.313 321.715 130.066C322.32 128.827 322.32 128.827 322.938 127.563C336.621 102.244 363.489 84.3409 390.456 75.8482C423.558 66.0257 460.492 68.9782 487.86 91.336ZM397 96.0001C396.296 96.2414 395.592 96.4828 394.867 96.7315C375.95 103.448 358.392 115.035 346 131C345.67 131.99 345.34 132.98 345 134C345.956 134.364 346.911 134.727 347.895 135.102C361.461 140.339 372.716 146.861 384 156C384.743 156.575 385.485 157.15 386.25 157.742C394.533 164.456 404.93 175.871 406.368 186.789C406.556 190.985 406.612 193.973 404.438 197.625C401.113 199.501 398.831 200.067 395 200C390.961 197.273 389.26 193.725 386.938 189.5C377.155 172.252 361.376 160.879 342.5 155.125C319.119 149.929 293.52 156.045 273.281 168.215C270.435 170.033 267.702 171.975 265 174C264.448 174.411 263.896 174.822 263.326 175.245C245.268 188.941 232.563 208.666 228 231C227.571 234.327 227.255 237.655 227 241C227.624 241.045 228.247 241.09 228.889 241.136C247.715 242.529 266.44 244.364 283.219 253.813C285.832 255.269 285.832 255.269 288.004 254.453C288.663 253.974 289.322 253.494 290 253C290.917 252.356 291.833 251.711 292.778 251.047C293.821 250.289 294.863 249.531 295.938 248.75C307.511 240.578 320.721 234.868 335 234C335.834 233.947 336.668 233.894 337.528 233.84C349.346 233.467 364.667 234.726 375 241C377.46 244.689 377.8 247.718 377 252C374.938 255 374.938 255 372 257C367.563 257.725 364.09 256.747 359.875 255.5C346.575 252.004 331.65 252.62 319 258C318.147 258.327 317.294 258.655 316.414 258.992C300.731 265.77 290.403 280.759 284 296C280.84 304.627 279.279 313.436 278.126 322.516C277.518 326.982 276.818 330.323 274 334C270.761 335.62 267.501 335.556 264 335C261 333.188 261 333.188 259 330C255.345 313.083 264.354 288.877 273.118 274.602C274.161 273.013 274.161 273.013 274 271C252.496 261.038 228.805 257.866 206 266C192.277 271.254 180.599 278.849 170 289C169.238 289.687 168.477 290.374 167.692 291.082C152.075 305.671 140.87 329.649 139.855 351.065C139.831 354.543 139.815 358.021 139.813 361.5C139.801 362.71 139.788 363.921 139.776 365.168C139.774 366.34 139.772 367.512 139.77 368.719C139.766 369.78 139.762 370.842 139.757 371.936C140.018 375.228 140.836 377.92 142 381C145.527 379.679 148.83 378.083 152.163 376.335C183.771 359.87 218.678 354.899 253.125 365.188C261.527 367.871 269.297 371.744 277 376C277.976 376.532 278.952 377.065 279.957 377.613C302.792 391.087 317.203 413.947 324.09 439.063C325.859 446.227 326.204 453.342 326.25 460.688C326.281 461.93 326.281 461.93 326.313 463.197C326.343 467.956 326.128 471.151 323 475C319.805 476.598 316.468 476.508 313 476C310.032 473.793 309.172 472.514 308 469C307.907 467.033 307.818 465.066 307.761 463.098C307.029 439.618 298.098 418.902 281.071 402.633C271.262 393.98 260.351 388.113 248 384C246.875 383.588 245.75 383.175 244.59 382.75C215.194 373.538 184.565 381.716 158.188 395.375C136.722 406.856 119.681 424.414 107 445C106.641 445.578 106.281 446.156 105.91 446.752C88.7019 474.939 83.0004 511.253 90.7347 543.313C93.9283 555.479 97.8992 566.966 104 578C104.553 577.295 105.106 576.59 105.676 575.863C122.446 555.204 142.301 540.81 169.25 537.254C170.612 537.128 170.612 537.128 172 537C173.485 536.859 173.485 536.859 175 536.715C179.641 536.474 182.187 536.49 186.188 539C188.706 543.168 188.69 545.175 188 550C186.42 552.729 185.107 553.691 182.071 554.539C180.419 554.867 178.762 555.168 177.102 555.449C156.121 559.175 136.822 566.767 123.819 584.623C111.672 602.817 106.836 625.976 110.946 647.473C117.169 676.26 132.486 699.385 157.036 715.794C161.112 718.296 165.429 720.062 169.879 721.781C178.408 725.112 178.408 725.112 181 729C181.256 731.226 181.256 731.226 181.274 733.84C181.291 734.81 181.309 735.78 181.327 736.78C181.343 737.822 181.359 738.864 181.375 739.938C182.467 775.896 195.804 809.89 222 835C241.373 852.488 264.95 859.037 290 864C291.266 864.271 291.266 864.271 292.558 864.546C304.24 866.716 316.931 865.711 327.262 859.68C336.656 853.131 342.041 845.002 344.75 833.938C344.833 832.968 344.915 831.999 345 831C345.063 830.359 345.127 829.719 345.192 829.059C345.804 818.015 341.002 808.264 334 800C325.945 791.262 314.522 786.289 302.668 785.664C291.702 785.445 283.032 786.496 273.75 792.813C270.732 794.827 270.066 795 266.188 795C263.135 794.042 261.836 793.549 260 791C258.421 787.842 258.181 784.393 259 781C262.401 776.896 266.062 774.643 270.813 772.313C271.974 771.731 273.136 771.15 274.332 770.551C283.194 766.804 290.962 766.749 300.5 766.875C301.8 766.884 303.099 766.893 304.438 766.902C307.626 766.926 310.813 766.959 314 767C314.211 766.477 314.422 765.954 314.639 765.415C324.966 739.948 324.966 739.948 329.953 736.746C333.232 735.551 335.669 736.167 339 737C341.783 738.977 342.775 740.337 343.871 743.559C344.059 748.579 341.977 751.996 339.688 756.375C336.686 762.222 334.343 767.545 333 774C333.629 774.485 334.258 774.969 334.907 775.469C349.586 786.965 359.691 799.834 363.75 818.438C364.829 833.814 362.992 848.634 353.278 861.234C351.873 862.842 350.44 864.424 349 866C349 866.66 349 867.32 349 868C348.142 868.391 348.142 868.391 347.266 868.789C344.826 870.093 342.884 871.617 340.75 873.375C336.693 876.598 332.71 878.86 328 881C333.877 898.166 354.183 912.375 369.813 920.313C395.28 932.693 422.357 935.936 449.375 926.867C452.333 925.704 455.158 924.421 458 923C458.983 922.509 459.965 922.018 460.977 921.512C469.119 917.104 475.499 911.492 482 905C482.669 904.343 483.338 903.685 484.028 903.008C505.013 880.833 505.469 851.752 505.206 823.165C505.175 819.417 505.162 815.668 505.147 811.92C505.115 804.613 505.064 797.307 505 790C503.558 789.671 502.116 789.345 500.673 789.019C499.468 788.746 499.468 788.746 498.238 788.467C483.062 785.301 465.218 791.05 452.082 798.699C445.375 803.215 438.599 808.59 435 816C435 816.66 435 817.32 435 818C431.302 819.233 427.845 819.581 424 819C420.807 816.543 419.258 814.475 418.563 810.5C419.485 803.119 424.533 796.816 430 792C430.528 791.482 431.055 790.964 431.598 790.43C451.977 771.132 478.238 769 505 769C505 597.73 505 426.46 505 250C488.584 246.352 474.39 248.137 459.707 256.871C454.575 260.266 450.283 264.619 446 269C445.407 269.561 444.814 270.122 444.203 270.699C436.211 278.885 431.145 291.976 429 303C428.819 303.924 428.637 304.849 428.45 305.801C427.827 310.235 427.755 314.692 427.746 319.166C427.606 323.064 427.108 324.863 424.672 327.961C422 330 422 330 418.5 330.563C414.495 329.919 412.841 328.841 410 326C404.935 315.869 410.094 296.287 413.188 286.375C418.059 272.744 425.338 260.863 436 251C436.857 250.188 436.857 250.188 437.731 249.359C453.028 235.315 472.163 228.358 492.75 228.813C493.936 228.826 495.122 228.84 496.344 228.854C499.23 228.889 502.115 228.938 505 229C505.071 221.08 505.123 213.159 505.156 205.238C505.171 201.558 505.192 197.879 505.227 194.199C505.509 163.176 503.024 134.518 480 111C461.35 94.5959 441.154 90.6257 417.025 91.7769C410.065 92.2904 403.589 93.7371 397 96.0001Z" fill="#06838E"/>
<path d="M745 65.375C748.089 66.0184 749.682 66.8231 751.845 69.1123C754.517 73.4782 754.685 78.959 755.375 83.9375C755.786 86.5652 756.203 89.1913 756.629 91.8164C756.738 92.4909 756.846 93.1654 756.958 93.8604C763.079 131.287 774.808 168.017 800 197C800.527 197.612 801.055 198.225 801.598 198.855C828.391 227.704 871.946 237.373 909 244C921.821 246.301 921.821 246.301 925.375 249.25C927 252 927 252 927.063 255.625C925.876 259.395 925.268 260.014 922 262C919.696 262.688 919.696 262.688 917.125 263.141C916.154 263.32 915.183 263.5 914.183 263.685C913.133 263.871 912.082 264.058 911 264.25C866.573 272.67 817.695 285.004 790.295 324.16C768.841 355.676 758.869 394.625 754.075 432.027C753.478 436.325 752.629 439.51 750 443C746.908 444.546 744.406 444.294 741 444C738.368 442.435 737.294 441.117 736.51 438.136C736.373 437.387 736.235 436.639 736.094 435.867C735.925 434.973 735.757 434.079 735.583 433.158C735.391 432.116 735.198 431.074 735 430C734.509 427.427 734.016 424.854 733.52 422.281C733.385 421.584 733.251 420.886 733.112 420.167C725.94 383.116 717.622 343.192 692 314C691.296 313.197 690.593 312.394 689.867 311.566C659.676 279.426 609.857 269.207 568.135 262.49C566 262 566 262 563.313 260.312C561.424 256.986 561.463 254.758 562 251C564.256 247.743 566.391 246.715 570.141 245.91C571.842 245.613 573.545 245.332 575.25 245.062C577.162 244.726 579.073 244.387 580.985 244.047C581.978 243.875 582.971 243.703 583.994 243.525C627.842 235.861 673.566 222.041 700.535 184.166C719.101 157.231 728.197 124.063 733.301 92.0977C733.408 91.4363 733.515 90.775 733.626 90.0936C734.144 86.8752 734.637 83.6567 735.089 80.4282C736.575 70.7704 736.575 70.7704 739.465 67.7148C742 66 742 66 745 65.375Z" fill="#05858F"/>
<path d="M874.625 340.875C876.296 340.937 876.296 340.937 878 341C880.834 346.796 881.865 352.273 882.812 358.625C886.927 383.768 894.411 411.118 916 427C932.381 437.927 951.498 443.125 970.747 446.479C971.636 446.635 972.525 446.792 973.441 446.953C974.244 447.084 975.046 447.214 975.873 447.349C978.357 448.109 979.452 448.925 981 451C980.688 453.688 980.688 453.688 980 456C973.478 458.37 966.986 459.906 960.188 461.25C936.544 466.192 914.193 474.069 899.938 494.82C889.304 512.272 884.276 531.536 881.38 551.625C881.24 552.546 881.101 553.466 880.957 554.414C880.787 555.635 880.787 555.635 880.613 556.881C879.886 559.394 879.077 560.431 877 562C873.938 562.312 873.938 562.312 871 562C868.258 559.258 868.031 556.275 867.301 552.598C866.98 551.061 866.658 549.524 866.336 547.987C866.169 547.182 866.003 546.377 865.831 545.548C860.414 519.586 854.044 492.821 830.72 477.092C814.969 467.092 795.875 463.042 777.781 459.736C776.811 459.551 775.84 459.366 774.84 459.176C773.977 459.02 773.115 458.865 772.226 458.704C769.701 457.905 768.606 457.087 767 455C766.625 452.438 766.625 452.438 767 450C770.347 447.768 772.694 447.297 776.625 446.52C777.976 446.244 779.328 445.968 780.679 445.691C781.385 445.548 782.091 445.406 782.818 445.258C808.506 440.01 833.483 432.867 849.129 410.043C860.065 392.258 863.941 372.003 867.352 351.659C867.54 350.56 867.728 349.461 867.922 348.328C868.083 347.347 868.243 346.367 868.409 345.356C869.423 341.313 870.492 341.018 874.625 340.875Z" fill="#06848F"/>
<path d="M350 347C353.188 348.187 353.188 348.187 356 351C357.018 354.048 357.625 357.075 358.235 360.23C362.116 379.339 370.095 397.205 386.594 408.633C399.1 415.738 412.6 420.11 427 421C428.095 421.097 428.095 421.097 429.211 421.195C442.945 421.88 457.396 416.689 468.176 408.308C470.876 406.372 472.756 406.603 476 407C479.494 408.668 480.827 409.74 483 413C483.875 419.558 483.875 419.558 481.92 422.781C478.094 427.24 474.234 430.057 469 432.687C468.261 433.069 467.522 433.451 466.761 433.844C460.06 437.19 453.321 439.373 446 441C445.156 441.195 444.311 441.389 443.442 441.59C440.81 442.032 438.354 442.098 435.688 442.062C434.363 442.049 434.363 442.049 433.012 442.035C432.348 442.023 431.684 442.012 431 442C431.035 443.053 431.07 444.106 431.106 445.191C431.728 471.96 422.373 496.682 405 517C404.557 517.588 404.113 518.176 403.656 518.781C387.008 540.303 357.347 550.768 331.404 554.359C326.278 555.003 321.145 555.533 316 556C315.648 557.016 315.296 558.031 314.934 559.078C305.831 584.723 288.974 605.131 264.208 616.932C252.614 622.144 236.873 628.204 224 627C220.609 625.394 218.822 624.121 216.625 621.125C215.749 618.145 215.566 616.102 216 613C218.629 608.59 219.845 607.341 224.813 605.875C225.586 605.745 226.36 605.615 227.156 605.48C241.871 602.994 255.525 598.31 268 590C268.749 589.511 269.498 589.023 270.27 588.519C282.451 579.879 289.669 566.625 295 553C293.888 552.87 293.888 552.87 292.754 552.738C267.528 549.373 243.913 538.696 224 523C223.392 522.536 222.783 522.072 222.156 521.594C205.762 508.687 194.713 487.295 191 467C190.646 460.569 190.646 460.569 192.75 457.187C196.249 453.786 196.249 453.786 199 453C202.607 453.129 205.077 453.338 208.043 455.465C210.87 459.127 211.662 463.006 212.813 467.437C218.991 489.424 232.153 505.637 252.02 516.867C264.137 523.471 276.603 527.788 290 531C291.466 531.371 291.466 531.371 292.961 531.75C318.326 537.105 348.235 532.577 370.293 518.848C374.752 515.804 378.937 512.553 383 509C383.687 508.408 384.374 507.817 385.082 507.207C404.084 489.63 409.244 464.697 411 440C410.005 439.89 409.01 439.781 407.985 439.668C403.882 439.077 400.107 437.797 396.25 436.312C395.552 436.045 394.854 435.779 394.135 435.504C384.381 431.682 376.042 426.709 368 420C366.552 418.851 366.552 418.851 365.074 417.68C348.105 403.473 339.734 381.007 337 359.625C336.828 356.44 336.988 355.03 338.188 352C341.94 347.859 344.222 346.191 350 347Z" fill="#06838E"/>
<path d="M425 580C428.274 582.672 429.782 584.065 430.254 588.258C430.039 592.212 429.777 594.19 426.957 597.129C423.257 599.47 419.79 600.324 415.563 601.312C402.768 604.608 391.806 609.959 382 619C381.451 619.495 380.902 619.99 380.336 620.5C374.172 626.829 369.763 636.712 367 645C368.733 645.278 368.733 645.278 370.5 645.562C393.282 650.665 414.446 666.526 427 686C437.191 703.356 437.191 703.356 436.875 712.687C435.91 716.339 434.931 717.691 432 720C429.552 721.224 428.266 721.016 425.563 720.75C424.78 720.683 423.998 720.616 423.191 720.547C420.458 719.865 419.665 719.276 418 717C417.033 714.673 416.156 712.37 415.313 710C407.829 690.368 392.024 677.456 373.375 668.75C351.658 659.908 327.923 659.43 306.125 668.187C299.008 671.209 292.952 675.04 287 680C286.224 680.592 285.448 681.183 284.648 681.793C274.292 690.139 268.68 701.655 264.289 713.918C263.109 716.741 262.451 718.241 260 720C257.014 720.722 254.982 721.209 252 721C249.14 719.235 247.502 718.004 246 715C244.162 701.135 250.777 689.849 258.66 679.027C273.439 659.906 291.858 649.113 315 643C315.906 642.754 316.812 642.508 317.746 642.254C326.958 640.17 336.616 640.834 346 641C346.148 640.386 346.296 639.773 346.448 639.141C351.5 618.983 365.627 602.288 383.145 591.656C384.087 591.11 385.029 590.563 386 590C387.336 589.211 387.336 589.211 388.699 588.406C394.82 585.06 401.052 582.903 407.75 581.062C408.542 580.839 409.334 580.615 410.15 580.384C415.485 579.015 419.595 578.825 425 580Z" fill="#06838E"/>
<path d="M698 188C698.66 188 699.32 188 700 188C698.642 191.043 697.115 193.123 694.742 195.453C694.117 196.072 693.492 196.691 692.848 197.328C692.197 197.962 691.546 198.597 690.875 199.25C690.216 199.9 689.558 200.549 688.879 201.219C687.257 202.817 685.631 204.411 684 206C683.34 205.67 682.68 205.34 682 205C682.82 204.192 683.64 203.384 684.484 202.551C685.573 201.471 686.662 200.392 687.75 199.312C688.289 198.782 688.828 198.252 689.383 197.705C691.852 195.251 694.114 192.854 696.266 190.105C696.838 189.411 697.41 188.716 698 188Z" fill="#056F7D"/>
<path d="M161 269C161.66 269.33 162.32 269.66 163 270C154.738 279.595 154.738 279.595 150 283C149.34 282.67 148.68 282.34 148 282C152.29 277.71 156.58 273.42 161 269Z" fill="#036E7B"/>
<path d="M187 779C189 780 189 780 189.887 781.961C190.151 782.758 190.415 783.554 190.688 784.375C190.959 785.166 191.231 785.958 191.512 786.773C192 789 192 789 191 792C190.67 790.68 190.34 789.36 190 788C189.34 788 188.68 788 188 788C187.67 785.03 187.34 782.06 187 779Z" fill="#137984"/>
<path d="M347 638C347.33 639.32 347.66 640.64 348 642C344.731 643.031 342.14 642.964 338.75 642.562C337.858 642.461 336.966 642.359 336.047 642.254C335.371 642.17 334.696 642.086 334 642C334 641.67 334 641.34 334 641C337.96 641 341.92 641 346 641C346.33 640.01 346.66 639.02 347 638Z" fill="#08717C"/>
<path d="M602 892C602.33 892 602.66 892 603 892C602.67 895.96 602.34 899.92 602 904C601.01 904 600.02 904 599 904C599.99 900.04 600.98 896.08 602 892Z" fill="#18818B"/>
</g>
<defs>
<clipPath id="clip0_2625_2750">
<rect width="1024" height="1024" fill="white"/>
</clipPath>
</defs>
</svg>
